<svg width="286" height="67" viewBox="0 0 286 67" fill="none" xmlns="http://www.w3.org/2000/svg">
<path d="M122.275 61.4H119.875V45.1H122.275V61.4Z" fill="black"/>
<path d="M124.375 49.8H126.875V61.5H124.375V49.8ZM129.075 53.3C129.075 52.8 128.975 52.4 128.775 52.2C128.575 52 128.275 51.8 127.875 51.8C127.475 51.8 127.175 51.9 126.975 52.2C126.775 52.4 126.675 52.8 126.675 53.3L126.475 51.8C126.675 51.1 127.075 50.5 127.475 50.2C127.875 49.8 128.475 49.6 128.975 49.6C129.775 49.6 130.375 49.9 130.775 50.4C131.175 50.9 131.375 51.7 131.375 52.7V61.5H128.975V53.3H129.075Z" fill="black"/>
<path d="M132.975 49.8H138.075V52.1H132.975V49.8ZM134.775 60.7C134.275 60.2 134.075 59.4 134.075 58.4V46.4H136.475V58.2C136.475 58.5 136.575 58.7 136.675 58.9C136.775 59.1 136.975 59.1 137.275 59.1H138.075V61.5H136.875C135.975 61.5 135.275 61.2 134.775 60.7Z" fill="black"/>
<path d="M141.275 61.2C140.775 60.9 140.375 60.5 140.075 59.9C139.775 59.3 139.675 58.7 139.675 57.9V53.5C139.675 52.7 139.775 52 140.075 51.4C140.375 50.8 140.775 50.4 141.275 50.1C141.775 49.8 142.375 49.6 143.175 49.6C143.875 49.6 144.575 49.7 145.075 50C145.575 50.3 145.975 50.7 146.275 51.3C146.575 51.9 146.675 52.5 146.675 53.3V56.5H141.475V54.6H144.275V53.3C144.275 52.8 144.175 52.4 143.975 52.2C143.775 51.9 143.475 51.8 143.075 51.8C142.675 51.8 142.375 51.9 142.175 52.2C141.975 52.5 141.875 52.9 141.875 53.4V58C141.875 58.4 141.975 58.8 142.175 59C142.375 59.2 142.675 59.4 143.075 59.4C143.475 59.4 143.675 59.3 143.875 59.1C144.075 58.9 144.175 58.6 144.175 58.3V58.1H146.475V58.2C146.475 59.3 146.175 60.1 145.575 60.7C144.975 61.3 144.075 61.6 142.975 61.6C142.475 61.6 141.775 61.4 141.275 61.2Z" fill="black"/>
<path d="M151.175 58.1C151.175 58.4 151.275 58.6 151.375 58.8C151.475 59 151.675 59 151.975 59H152.475V61.4H151.475C150.575 61.4 149.875 61.1 149.475 60.6C148.975 60.1 148.775 59.3 148.775 58.3V45.1H151.175V58.1Z" fill="black"/>
<path d="M156.475 58.1C156.475 58.4 156.575 58.6 156.675 58.8C156.775 59 156.975 59 157.275 59H157.775V61.4H156.775C155.875 61.4 155.175 61.1 154.775 60.6C154.275 60.1 154.075 59.3 154.075 58.3V45.1H156.475V58.1Z" fill="black"/>
<path d="M159.175 45.2H161.575V47.6H159.175V45.2ZM159.175 49.8H161.575V61.5H159.175V49.8Z" fill="black"/>
<path d="M164.675 61.2C164.275 60.9 164.075 60.6 163.875 60.1C163.675 59.6 163.575 59 163.575 58.3V53C163.575 52.3 163.675 51.7 163.875 51.2C164.075 50.7 164.375 50.3 164.675 50C165.075 49.7 165.475 49.6 165.975 49.6C166.475 49.6 166.975 49.8 167.375 50.2C167.775 50.6 168.175 51.1 168.375 51.7L168.175 53.2C168.175 52.9 168.175 52.7 168.075 52.4C167.975 52.2 167.875 52 167.675 51.9C167.475 51.8 167.275 51.7 167.075 51.7C166.675 51.7 166.475 51.8 166.275 52.1C166.075 52.3 165.975 52.7 165.975 53.1V58C165.975 58.4 166.075 58.7 166.275 59C166.475 59.2 166.775 59.3 167.075 59.3C167.275 59.3 167.475 59.2 167.675 59.1C167.875 59 167.975 58.8 168.075 58.6C168.175 58.4 168.175 58.1 168.175 57.9L168.375 59.5C168.175 60.1 167.875 60.6 167.475 61C167.075 61.4 166.575 61.5 165.975 61.5C165.475 61.6 164.975 61.5 164.675 61.2ZM164.475 65.3C163.875 64.7 163.575 63.9 163.575 62.8V62.4H165.975V62.8C165.975 63.2 166.075 63.4 166.275 63.6C166.475 63.8 166.775 63.9 167.075 63.9C167.375 63.9 167.675 63.8 167.875 63.6C168.075 63.4 168.175 63.1 168.175 62.8V49.8H170.575V62.9C170.575 63.6 170.475 64.2 170.175 64.7C169.875 65.2 169.475 65.6 168.975 65.8C168.475 66.1 167.775 66.2 167.075 66.2C165.975 66.2 165.075 65.9 164.475 65.3Z" fill="black"/>
<path d="M174.375 61.2C173.875 60.9 173.475 60.5 173.175 59.9C172.875 59.3 172.775 58.7 172.775 57.9V53.5C172.775 52.7 172.875 52 173.175 51.4C173.475 50.8 173.875 50.4 174.375 50.1C174.875 49.8 175.475 49.6 176.275 49.6C176.975 49.6 177.675 49.7 178.175 50C178.675 50.3 179.075 50.7 179.375 51.3C179.675 51.9 179.775 52.5 179.775 53.3V56.5H174.575V54.6H177.375V53.3C177.375 52.8 177.275 52.4 177.075 52.2C176.875 51.9 176.575 51.8 176.175 51.8C175.775 51.8 175.475 51.9 175.275 52.2C175.075 52.5 174.975 52.9 174.975 53.4V58C174.975 58.4 175.075 58.8 175.275 59C175.475 59.2 175.775 59.4 176.175 59.4C176.575 59.4 176.775 59.3 176.975 59.1C177.175 58.9 177.275 58.6 177.275 58.3V58.1H179.575V58.2C179.575 59.3 179.275 60.1 178.675 60.7C178.075 61.3 177.175 61.6 176.075 61.6C175.475 61.6 174.875 61.4 174.375 61.2Z" fill="black"/>
<path d="M181.775 49.8H184.275V61.5H181.775V49.8ZM186.575 53.3C186.575 52.8 186.475 52.4 186.275 52.2C186.075 52 185.775 51.8 185.375 51.8C184.975 51.8 184.675 51.9 184.475 52.2C184.275 52.4 184.175 52.8 184.175 53.3L183.975 51.8C184.175 51.1 184.575 50.5 184.975 50.2C185.375 49.8 185.975 49.6 186.475 49.6C187.275 49.6 187.875 49.9 188.275 50.4C188.675 50.9 188.875 51.7 188.875 52.7V61.5H186.475V53.3H186.575Z" fill="black"/>
<path d="M190.375 49.8H195.475V52.1H190.375V49.8ZM192.175 60.7C191.675 60.2 191.475 59.4 191.475 58.4V46.4H193.875V58.2C193.875 58.5 193.975 58.7 194.075 58.9C194.175 59.1 194.375 59.1 194.675 59.1H195.475V61.5H194.275C193.375 61.5 192.675 61.2 192.175 60.7Z" fill="black"/>
<path d="M204.775 45.1H206.675L210.475 61.4H207.975L205.675 49.5L203.375 61.4H200.875L204.775 45.1ZM203.475 56.1H208.075V58.4H203.475V56.1Z" fill="black"/>
<path d="M214.375 58.3C214.375 58.7 214.475 58.9 214.675 59.1C214.875 59.3 215.075 59.4 215.475 59.4C215.775 59.4 216.075 59.3 216.275 59.1C216.475 58.9 216.575 58.6 216.575 58.3L216.775 59.6C216.575 60.3 216.275 60.8 215.975 61.1C215.575 61.4 215.175 61.6 214.675 61.6C213.875 61.6 213.175 61.3 212.775 60.8C212.375 60.3 212.175 59.5 212.175 58.4V49.8H214.575V58.3H214.375ZM216.475 49.8H218.875V61.5H216.475V49.8Z" fill="black"/>
<path d="M220.275 49.8H225.375V52.1H220.275V49.8ZM222.075 60.7C221.575 60.2 221.375 59.4 221.375 58.4V46.4H223.775V58.2C223.775 58.5 223.875 58.7 223.975 58.9C224.075 59.1 224.275 59.1 224.575 59.1H225.375V61.5H224.175C223.275 61.5 222.475 61.2 222.075 60.7Z" fill="black"/>
<path d="M228.475 61.2C227.975 60.9 227.575 60.6 227.275 60.1C226.975 59.6 226.875 59 226.875 58.3V52.8C226.875 52.1 226.975 51.5 227.275 51.1C227.575 50.6 227.975 50.2 228.475 50C228.975 49.7 229.575 49.6 230.275 49.6C230.975 49.6 231.575 49.7 232.075 50C232.575 50.3 232.975 50.6 233.275 51.1C233.575 51.6 233.675 52.2 233.675 52.8V58.4C233.675 59.1 233.575 59.7 233.275 60.2C232.975 60.7 232.675 61.1 232.075 61.3C231.575 61.6 230.975 61.7 230.275 61.7C229.575 61.6 228.975 61.5 228.475 61.2ZM230.975 59C231.175 58.8 231.175 58.5 231.175 58.2V53C231.175 52.7 231.075 52.4 230.975 52.2C230.775 52 230.575 51.9 230.275 51.9C229.975 51.9 229.775 52 229.575 52.2C229.375 52.4 229.275 52.7 229.275 53V58.2C229.275 58.6 229.375 58.8 229.575 59C229.775 59.2 229.975 59.3 230.275 59.3C230.575 59.3 230.875 59.2 230.975 59Z" fill="black"/>
<path d="M235.775 49.8H238.275V61.5H235.775V49.8ZM240.475 53.3C240.475 52.8 240.375 52.4 240.175 52.2C239.975 52 239.675 51.8 239.375 51.8C238.975 51.8 238.675 51.9 238.475 52.2C238.275 52.4 238.175 52.8 238.175 53.3L237.975 51.7C238.275 51 238.575 50.4 239.075 50.1C239.575 49.7 240.075 49.5 240.675 49.5C241.175 49.5 241.575 49.6 241.975 49.8C242.375 50 242.575 50.4 242.775 50.8C242.975 51.2 243.075 51.8 243.075 52.4V61.3H240.675V53.3H240.475ZM245.275 53.3C245.275 52.8 245.175 52.4 244.975 52.2C244.775 52 244.475 51.8 244.075 51.8C243.675 51.8 243.375 51.9 243.275 52.2C243.075 52.4 242.975 52.8 242.975 53.3L242.675 51.7C242.875 51 243.275 50.4 243.675 50.1C244.175 49.7 244.675 49.5 245.175 49.5C245.675 49.5 246.075 49.6 246.475 49.9C246.875 50.1 247.075 50.5 247.275 50.9C247.475 51.4 247.575 51.9 247.575 52.6V61.4H245.075V53.3H245.275Z" fill="black"/>
<path d="M250.575 60.8C250.075 60.2 249.875 59.4 249.875 58.3C249.875 57 250.175 56.1 250.775 55.4C251.375 54.7 252.275 54.4 253.475 54.4H254.675L254.875 56.5H253.575C253.075 56.5 252.775 56.7 252.475 57C252.275 57.3 252.075 57.8 252.075 58.4C252.075 58.8 252.175 59.1 252.375 59.3C252.575 59.5 252.875 59.6 253.175 59.6C253.675 59.6 253.975 59.5 254.175 59.2C254.375 58.9 254.575 58.6 254.575 58.1L254.775 59.1C254.775 59.7 254.675 60.1 254.475 60.5C254.275 60.9 254.075 61.2 253.675 61.4C253.375 61.6 252.975 61.7 252.475 61.7C251.675 61.6 250.975 61.3 250.575 60.8ZM254.675 53C254.675 52.6 254.575 52.3 254.375 52.1C254.175 51.9 253.875 51.8 253.475 51.8C253.175 51.8 252.875 51.9 252.675 52.1C252.475 52.3 252.375 52.6 252.375 53H250.075C250.075 51.9 250.375 51.1 250.975 50.5C251.575 49.9 252.375 49.6 253.475 49.6C254.175 49.6 254.875 49.7 255.375 50C255.875 50.3 256.275 50.7 256.575 51.2C256.875 51.7 256.975 52.3 256.975 53V61.4H254.675V53Z" fill="black"/>
<path d="M258.375 49.8H263.475V52.1H258.375V49.8ZM260.175 60.7C259.675 60.2 259.475 59.4 259.475 58.4V46.4H261.875V58.2C261.875 58.5 261.975 58.7 262.075 58.9C262.175 59.1 262.375 59.1 262.675 59.1H263.475V61.5H262.275C261.375 61.5 260.675 61.2 260.175 60.7Z" fill="black"/>
<path d="M265.175 45.2H267.575V47.6H265.175V45.2ZM265.175 49.8H267.575V61.5H265.175V49.8Z" fill="black"/>
<path d="M271.075 61.2C270.575 60.9 270.175 60.6 269.875 60.1C269.575 59.6 269.475 59 269.475 58.3V52.8C269.475 52.1 269.575 51.5 269.875 51.1C270.175 50.6 270.575 50.2 271.075 50C271.575 49.7 272.175 49.6 272.875 49.6C273.575 49.6 274.175 49.7 274.675 50C275.175 50.3 275.575 50.6 275.875 51.1C276.175 51.6 276.275 52.2 276.275 52.8V58.4C276.275 59.1 276.175 59.7 275.875 60.2C275.575 60.7 275.275 61.1 274.675 61.3C274.175 61.6 273.575 61.7 272.875 61.7C272.175 61.6 271.575 61.5 271.075 61.2ZM273.675 59C273.875 58.8 273.875 58.5 273.875 58.2V53C273.875 52.7 273.775 52.4 273.675 52.2C273.475 52 273.275 51.9 272.975 51.9C272.675 51.9 272.475 52 272.275 52.2C272.075 52.4 271.975 52.7 271.975 53V58.2C271.975 58.6 272.075 58.8 272.275 59C272.475 59.2 272.675 59.3 272.975 59.3C273.275 59.3 273.475 59.2 273.675 59Z" fill="black"/>
<path d="M278.375 49.8H280.875V61.5H278.375V49.8ZM283.075 53.3C283.075 52.8 282.975 52.4 282.775 52.2C282.575 52 282.275 51.8 281.875 51.8C281.475 51.8 281.175 51.9 280.975 52.2C280.775 52.4 280.675 52.8 280.675 53.3L280.475 51.8C280.675 51.1 281.075 50.5 281.475 50.2C281.875 49.8 282.475 49.6 282.975 49.6C283.775 49.6 284.375 49.9 284.775 50.4C285.175 50.9 285.375 51.7 285.375 52.7V61.5H282.975V53.3H283.075Z" fill="black"/>
<path d="M134.475 1.6C133.275 0.899998 131.675 0.599998 129.975 0.599998H125.775H123.775H119.975V9.6H125.775V6.1H129.675C130.575 6.1 131.275 6.4 131.775 6.9C132.275 7.4 132.475 8.2 132.475 9.2V30.4C132.475 31.4 132.275 32.1 131.775 32.7C131.275 33.2 130.575 33.5 129.675 33.5H125.775V30H119.975V39H123.775H125.775H129.975C131.775 39 133.275 38.7 134.475 38C135.675 37.3 136.675 36.4 137.375 35.2C138.075 34 138.375 32.5 138.375 30.7V8.9C138.375 7.1 138.075 5.6 137.375 4.4C136.675 3.2 135.675 2.3 134.475 1.6Z" fill="#0F72BA"/>
<path d="M148.875 0.599998L139.875 38.9H145.775L147.175 31.7H155.175L156.575 38.9H162.475L153.475 0.599998H148.875ZM148.175 26.4L151.175 11.2L154.075 26.4H148.175Z" fill="#0F72BA"/>
<path d="M180.875 6.1V0.599998H161.875V6.1H168.475V39H174.275V6.1H180.875Z" fill="#0F72BA"/>
<path d="M188.975 0.599998L179.975 38.9H185.875L187.275 31.7H195.275L196.675 38.9H202.575L193.575 0.599998H188.975ZM188.375 26.4L191.275 11.2L194.175 26.4H188.375Z" fill="#0F72BA"/>
<path d="M218.775 19.4C217.875 18.7 216.675 18.1 215.175 17.3C215.075 17.3 215.075 17.2 214.975 17.2C214.875 17.2 214.875 17.2 214.775 17.1C214.575 17 214.475 16.9 214.275 16.8C214.175 16.7 213.975 16.6 213.775 16.6C212.675 16.1 211.775 15.6 211.175 15.2C210.575 14.8 209.975 14.3 209.575 13.7C209.175 13.1 208.975 12.4 208.975 11.5V9C208.975 7.9 209.275 7.1 209.875 6.5C210.475 5.9 211.375 5.6 212.575 5.6C213.675 5.6 214.475 5.9 215.075 6.6C215.675 7.2 215.975 8.2 215.975 9.4V11.4L221.775 11.3V9.2C221.775 7.2 221.375 5.6 220.675 4.2C219.975 2.8 218.875 1.8 217.575 1.1C216.275 0.4 214.575 0 212.575 0C210.575 0 208.875 0.4 207.475 1.1C206.075 1.8 204.975 2.8 204.275 4.2C203.575 5.6 203.175 7.2 203.175 9.2V11.3C203.175 13.2 203.475 14.8 204.175 16C204.875 17.3 205.775 18.3 206.775 19C207.775 19.7 209.075 20.5 210.575 21.2L210.875 21.4C210.975 21.4 210.975 21.4 211.075 21.5C211.175 21.5 211.175 21.5 211.275 21.6C212.375 22.1 213.275 22.6 213.975 23C214.675 23.4 215.175 23.9 215.575 24.5C215.975 25.1 216.175 25.8 216.175 26.6V29.9C216.175 31.1 215.875 32 215.275 32.6C214.675 33.2 213.775 33.6 212.575 33.6C211.375 33.6 210.475 33.3 209.775 32.6C209.175 31.9 208.775 31 208.775 29.9V28L203.075 28.1V30.1C203.075 32.1 203.375 33.7 204.175 35.1C204.875 36.5 205.975 37.5 207.375 38.2C208.775 38.9 210.475 39.3 212.475 39.3C214.475 39.3 216.175 38.9 217.575 38.2C218.975 37.5 220.075 36.4 220.775 35C221.475 33.6 221.875 31.9 221.875 30V26.7C221.875 24.8 221.575 23.3 220.875 22.1C220.475 21 219.675 20.1 218.775 19.4Z" fill="#0F72BA"/>
<path d="M229.175 0.599998H226.375V39H229.175H232.175H243.175V33.4H232.175V22.7H241.875V17.2H232.175V6.2H243.175V0.599998H232.175H229.175Z" fill="#0F72BA"/>
<path d="M249.575 0.599998H246.775V39H249.575H252.575H263.575V33.4H252.575V22.7H262.275V17.2H252.575V6.2H263.575V0.599998H252.575H249.575Z" fill="#0F72BA"/>
<path d="M284.575 4.4C283.875 3.2 282.975 2.2 281.675 1.6C280.475 0.899998 278.875 0.599998 277.175 0.599998H272.975H270.975H267.175V38.9H270.975H272.975H277.175C278.975 38.9 280.475 38.6 281.675 37.9C282.875 37.2 283.875 36.3 284.575 35.1C285.275 33.9 285.575 32.4 285.575 30.6V8.9C285.575 7.2 285.175 5.7 284.575 4.4ZM279.675 30.4C279.675 31.4 279.475 32.1 278.975 32.7C278.475 33.2 277.775 33.5 276.875 33.5H272.975V6.1H276.875C277.775 6.1 278.475 6.4 278.975 6.9C279.475 7.4 279.675 8.2 279.675 9.2V30.4Z" fill="#0F72BA"/>
<path d="M123.075 28.5C122.675 28.9 122.075 28.9 121.675 28.6C121.075 28.2 120.975 27.5 121.375 26.9C121.475 26.8 121.475 26.7 121.575 26.7C121.975 26.2 122.175 25.7 122.175 25.1C122.175 24.6 121.975 24.1 121.675 23.7C121.575 23.6 121.575 23.5 121.475 23.5C121.175 23.1 121.075 22.7 121.275 22.3C121.475 21.8 121.975 21.5 122.375 21.5C122.675 21.5 122.875 21.6 123.075 21.8C123.475 22.2 123.575 22.8 123.275 23.3C123.175 23.4 123.175 23.5 123.075 23.6C122.375 24.3 122.175 25.2 122.575 26.1C122.675 26.4 122.875 26.7 123.075 26.9C123.375 27.2 123.475 27.6 123.375 28.1C123.275 28.2 123.175 28.3 123.075 28.5Z" fill="#FEC010"/>
<path d="M123.075 17.8C122.675 18.2 122.075 18.2 121.675 17.9C121.075 17.5 120.975 16.8 121.375 16.2C121.475 16.1 121.475 16 121.575 16C121.975 15.5 122.175 15 122.175 14.4C122.175 13.9 121.975 13.4 121.675 13C121.575 12.9 121.575 12.8 121.475 12.8C121.175 12.4 121.075 12 121.275 11.6C121.475 11.1 121.975 10.8 122.375 10.8C122.675 10.8 122.875 10.9 123.075 11.1C123.475 11.5 123.575 12.1 123.275 12.6C123.175 12.7 123.175 12.8 123.075 12.9C122.375 13.6 122.175 14.5 122.575 15.4C122.675 15.7 122.875 16 123.075 16.2C123.375 16.5 123.475 16.9 123.375 17.4C123.275 17.5 123.175 17.6 123.075 17.8Z" fill="#FEC010"/>
<path d="M117.875 25.6C117.475 25.2 117.375 24.5 117.775 24C117.875 23.9 117.975 23.8 118.075 23.6C118.375 23.2 118.475 22.8 118.475 22.4C118.475 21.9 118.375 21.5 118.175 21.1C118.075 20.9 117.975 20.8 117.775 20.6C117.675 20.5 117.575 20.3 117.475 20.1C117.375 19.7 117.375 19.4 117.575 19.1C117.875 18.7 118.175 18.6 118.675 18.6C118.975 18.6 119.275 18.8 119.475 19C119.775 19.4 119.775 19.8 119.675 20.2C119.575 20.3 119.575 20.5 119.375 20.6C119.075 20.9 118.875 21.2 118.775 21.6C118.775 22.2 118.775 22.8 119.075 23.4C119.175 23.6 119.375 23.8 119.575 24C119.975 24.4 119.975 25 119.675 25.4C119.375 25.9 118.775 26 118.275 25.8C118.175 25.8 117.975 25.7 117.875 25.6Z" fill="#FEC010"/>
<path d="M126.575 14C126.975 14.4 127.075 15 126.675 15.5C126.575 15.6 126.475 15.7 126.375 15.8C126.075 16.1 125.875 16.5 125.875 16.9C125.775 17.3 125.875 17.7 125.975 18.1C126.075 18.4 126.175 18.6 126.375 18.8C126.475 18.9 126.575 19 126.575 19C126.875 19.4 126.975 19.8 126.675 20.2C126.475 20.7 126.075 20.9 125.575 20.9C125.275 20.9 125.075 20.8 124.875 20.6C124.675 20.4 124.575 20.2 124.475 19.9C124.375 19.5 124.475 19.2 124.775 18.9C124.875 18.7 125.075 18.6 125.175 18.4C125.375 18.1 125.475 17.7 125.575 17.3C125.575 16.9 125.575 16.5 125.375 16.1C125.275 15.9 125.075 15.6 124.875 15.4C124.675 15.2 124.475 14.9 124.575 14.5C124.575 14 124.975 13.5 125.475 13.4C125.875 13.3 126.175 13.4 126.475 13.6C126.475 13.9 126.575 14 126.575 14Z" fill="#FEC010"/>
<path d="M114.375 20.6C113.875 20.2 113.875 19.4 114.375 18.9C114.875 18.4 115.575 18.4 116.075 18.9C116.475 19.3 116.575 20.1 116.075 20.5C115.475 21.1 114.775 21.1 114.375 20.6Z" fill="#FEC010"/>
<path d="M121.375 20.6C120.875 20.2 120.875 19.4 121.375 18.9C121.875 18.4 122.575 18.4 123.075 18.9C123.475 19.3 123.575 20.1 123.075 20.5C122.575 21.1 121.875 21.1 121.375 20.6Z" fill="#FEC010"/>
<path d="M124.975 24.2C124.475 23.8 124.475 23 124.975 22.5C125.475 22 126.175 22 126.675 22.5C127.075 22.9 127.175 23.7 126.675 24.1C126.075 24.7 125.375 24.6 124.975 24.2Z" fill="#FEC010"/>
<path d="M117.875 17C117.375 16.6 117.375 15.8 117.875 15.3C118.375 14.8 119.075 14.8 119.575 15.3C119.975 15.7 120.075 16.5 119.575 16.9C119.075 17.5 118.275 17.5 117.875 17Z" fill="#FEC010"/>
<path d="M130.075 19C130.475 19.4 130.575 20.2 130.075 20.7C129.575 21.2 128.875 21.2 128.475 20.7C127.975 20.2 127.975 19.5 128.475 19C128.975 18.5 129.675 18.5 130.075 19Z" fill="#FEC010"/>
<path d="M1.29119 39V25.9091H6.20028C7.20597 25.9091 8.04972 26.0966 8.73153 26.4716C9.41761 26.8466 9.93537 27.3622 10.2848 28.0185C10.6385 28.6705 10.8153 29.4119 10.8153 30.2429C10.8153 31.0824 10.6385 31.8281 10.2848 32.4801C9.93111 33.1321 9.40909 33.6456 8.71875 34.0206C8.02841 34.3913 7.17827 34.5767 6.16832 34.5767H2.91477V32.6271H5.84872C6.43679 32.6271 6.91832 32.5249 7.29332 32.3203C7.66832 32.1158 7.94531 31.8345 8.12429 31.4766C8.30753 31.1186 8.39915 30.7074 8.39915 30.2429C8.39915 29.7784 8.30753 29.3693 8.12429 29.0156C7.94531 28.6619 7.66619 28.3871 7.28693 28.1911C6.91193 27.9908 6.42827 27.8906 5.83594 27.8906H3.66264V39H1.29119ZM16.915 39.1918C15.9561 39.1918 15.1252 38.9808 14.4221 38.5589C13.7189 38.1371 13.1735 37.5469 12.7857 36.7884C12.4022 36.0298 12.2104 35.1435 12.2104 34.1293C12.2104 33.1151 12.4022 32.2266 12.7857 31.4638C13.1735 30.701 13.7189 30.1087 14.4221 29.6868C15.1252 29.2649 15.9561 29.054 16.915 29.054C17.8738 29.054 18.7047 29.2649 19.4078 29.6868C20.111 30.1087 20.6543 30.701 21.0378 31.4638C21.4256 32.2266 21.6195 33.1151 21.6195 34.1293C21.6195 35.1435 21.4256 36.0298 21.0378 36.7884C20.6543 37.5469 20.111 38.1371 19.4078 38.5589C18.7047 38.9808 17.8738 39.1918 16.915 39.1918ZM16.9277 37.3381C17.4476 37.3381 17.8823 37.1953 18.2317 36.9098C18.5811 36.62 18.8411 36.2322 19.0115 35.7464C19.1863 35.2607 19.2736 34.7195 19.2736 34.1229C19.2736 33.522 19.1863 32.9787 19.0115 32.4929C18.8411 32.0028 18.5811 31.6129 18.2317 31.3232C17.8823 31.0334 17.4476 30.8885 16.9277 30.8885C16.3951 30.8885 15.9519 31.0334 15.5982 31.3232C15.2488 31.6129 14.9867 32.0028 14.812 32.4929C14.6415 32.9787 14.5563 33.522 14.5563 34.1229C14.5563 34.7195 14.6415 35.2607 14.812 35.7464C14.9867 36.2322 15.2488 36.62 15.5982 36.9098C15.9519 37.1953 16.3951 37.3381 16.9277 37.3381ZM25.3285 39L22.5543 29.1818H24.913L26.6388 36.0852H26.7283L28.4925 29.1818H30.8256L32.5898 36.0469H32.6857L34.386 29.1818H36.7511L33.9705 39H31.5607L29.7198 32.3651H29.5856L27.7447 39H25.3285ZM42.432 39.1918C41.4476 39.1918 40.5975 38.9872 39.8816 38.5781C39.1699 38.1648 38.6223 37.581 38.2388 36.8267C37.8553 36.0682 37.6635 35.1754 37.6635 34.1484C37.6635 33.1385 37.8553 32.2521 38.2388 31.4893C38.6266 30.7223 39.1678 30.1257 39.8624 29.6996C40.557 29.2692 41.373 29.054 42.3105 29.054C42.9157 29.054 43.4867 29.152 44.0236 29.348C44.5648 29.5398 45.0421 29.8381 45.4554 30.2429C45.873 30.6477 46.2012 31.1634 46.4398 31.7898C46.6784 32.4119 46.7978 33.1534 46.7978 34.0142V34.7237H38.7502V33.1641H44.5797C44.5755 32.7209 44.4796 32.3267 44.2921 31.9815C44.1046 31.6321 43.8425 31.3572 43.5059 31.157C43.1735 30.9567 42.7857 30.8565 42.3425 30.8565C41.8695 30.8565 41.454 30.9716 41.0961 31.2017C40.7381 31.4276 40.459 31.7259 40.2587 32.0966C40.0627 32.4631 39.9625 32.8658 39.9583 33.3047V34.6662C39.9583 35.2372 40.0627 35.7273 40.2715 36.1364C40.4803 36.5412 40.7722 36.8523 41.1472 37.0696C41.5222 37.2827 41.9611 37.3892 42.464 37.3892C42.8006 37.3892 43.1053 37.3423 43.378 37.2486C43.6507 37.1506 43.8873 37.0078 44.0875 36.8203C44.2878 36.6328 44.4391 36.4006 44.5414 36.1236L46.7019 36.3665C46.5655 36.9375 46.3056 37.4361 45.9221 37.8622C45.5428 38.2841 45.057 38.6122 44.4647 38.8466C43.8723 39.0767 43.1948 39.1918 42.432 39.1918ZM48.7553 39V29.1818H50.9989V30.8182H51.1012C51.2802 30.2514 51.587 29.8146 52.0217 29.5078C52.4606 29.1967 52.9613 29.0412 53.5238 29.0412C53.6516 29.0412 53.7944 29.0476 53.9521 29.0604C54.114 29.0689 54.2482 29.0838 54.3548 29.1051V31.2337C54.2567 31.1996 54.1012 31.1697 53.8881 31.1442C53.6793 31.1143 53.4769 31.0994 53.2809 31.0994C52.859 31.0994 52.4798 31.1911 52.1431 31.3743C51.8107 31.5533 51.5487 31.8026 51.3569 32.1222C51.1651 32.4418 51.0692 32.8104 51.0692 33.228V39H48.7553ZM59.8343 39.1918C58.85 39.1918 57.9998 38.9872 57.2839 38.5781C56.5723 38.1648 56.0247 37.581 55.6412 36.8267C55.2576 36.0682 55.0659 35.1754 55.0659 34.1484C55.0659 33.1385 55.2576 32.2521 55.6412 31.4893C56.0289 30.7223 56.5701 30.1257 57.2647 29.6996C57.9593 29.2692 58.7754 29.054 59.7129 29.054C60.318 29.054 60.889 29.152 61.426 29.348C61.9672 29.5398 62.4444 29.8381 62.8578 30.2429C63.2754 30.6477 63.6035 31.1634 63.8422 31.7898C64.0808 32.4119 64.2001 33.1534 64.2001 34.0142V34.7237H56.1525V33.1641H61.9821C61.9778 32.7209 61.8819 32.3267 61.6944 31.9815C61.5069 31.6321 61.2449 31.3572 60.9082 31.157C60.5758 30.9567 60.188 30.8565 59.7449 30.8565C59.2718 30.8565 58.8564 30.9716 58.4984 31.2017C58.1404 31.4276 57.8613 31.7259 57.661 32.0966C57.465 32.4631 57.3649 32.8658 57.3606 33.3047V34.6662C57.3606 35.2372 57.465 35.7273 57.6738 36.1364C57.8826 36.5412 58.1745 36.8523 58.5495 37.0696C58.9245 37.2827 59.3635 37.3892 59.8663 37.3892C60.2029 37.3892 60.5076 37.3423 60.7804 37.2486C61.0531 37.1506 61.2896 37.0078 61.4899 36.8203C61.6902 36.6328 61.8414 36.4006 61.9437 36.1236L64.1042 36.3665C63.9679 36.9375 63.7079 37.4361 63.3244 37.8622C62.9451 38.2841 62.4593 38.6122 61.867 38.8466C61.2747 39.0767 60.5971 39.1918 59.8343 39.1918ZM69.8011 39.1726C69.0298 39.1726 68.3395 38.9744 67.7301 38.5781C67.1207 38.1818 66.6392 37.6065 66.2855 36.8523C65.9318 36.098 65.755 35.1818 65.755 34.1037C65.755 33.0128 65.9339 32.0923 66.2919 31.3423C66.6541 30.5881 67.142 30.0192 67.7557 29.6357C68.3693 29.2479 69.0533 29.054 69.8075 29.054C70.3828 29.054 70.8558 29.152 71.2266 29.348C71.5973 29.5398 71.8913 29.772 72.1087 30.0447C72.326 30.3132 72.4943 30.5668 72.6136 30.8054H72.7095V25.9091H75.0298V39H72.7543V37.4531H72.6136C72.4943 37.6918 72.3217 37.9453 72.0959 38.2138C71.87 38.478 71.5717 38.7038 71.201 38.8913C70.8303 39.0788 70.3636 39.1726 69.8011 39.1726ZM70.4467 37.2741C70.9368 37.2741 71.3544 37.142 71.6996 36.8778C72.0447 36.6094 72.3068 36.2365 72.4858 35.7592C72.6648 35.282 72.7543 34.7259 72.7543 34.0909C72.7543 33.456 72.6648 32.9041 72.4858 32.4354C72.3111 31.9666 72.0511 31.6023 71.706 31.3423C71.3651 31.0824 70.9453 30.9524 70.4467 30.9524C69.9311 30.9524 69.5007 31.0866 69.1555 31.3551C68.8104 31.6236 68.5504 31.9943 68.3757 32.4673C68.201 32.9403 68.1136 33.4815 68.1136 34.0909C68.1136 34.7045 68.201 35.2521 68.3757 35.7337C68.5547 36.2109 68.8168 36.5881 69.1619 36.8651C69.5114 37.1378 69.9396 37.2741 70.4467 37.2741ZM82.0627 39V25.9091H84.3766V30.8054H84.4725C84.5918 30.5668 84.7601 30.3132 84.9775 30.0447C85.1948 29.772 85.4888 29.5398 85.8596 29.348C86.2303 29.152 86.7033 29.054 87.2786 29.054C88.0371 29.054 88.7211 29.2479 89.3304 29.6357C89.9441 30.0192 90.4299 30.5881 90.7878 31.3423C91.15 32.0923 91.3311 33.0128 91.3311 34.1037C91.3311 35.1818 91.1543 36.098 90.8006 36.8523C90.4469 37.6065 89.9654 38.1818 89.356 38.5781C88.7466 38.9744 88.0563 39.1726 87.285 39.1726C86.7225 39.1726 86.2559 39.0788 85.8851 38.8913C85.5144 38.7038 85.2161 38.478 84.9902 38.2138C84.7686 37.9453 84.5961 37.6918 84.4725 37.4531H84.3382V39H82.0627ZM84.3319 34.0909C84.3319 34.7259 84.4213 35.282 84.6003 35.7592C84.7836 36.2365 85.0456 36.6094 85.3865 36.8778C85.7317 37.142 86.1493 37.2741 86.6394 37.2741C87.1507 37.2741 87.579 37.1378 87.9242 36.8651C88.2694 36.5881 88.5293 36.2109 88.704 35.7337C88.883 35.2521 88.9725 34.7045 88.9725 34.0909C88.9725 33.4815 88.8851 32.9403 88.7104 32.4673C88.5357 31.9943 88.2757 31.6236 87.9306 31.3551C87.5854 31.0866 87.155 30.9524 86.6394 30.9524C86.1451 30.9524 85.7253 31.0824 85.3801 31.3423C85.035 31.6023 84.7729 31.9666 84.5939 32.4354C84.4192 32.9041 84.3319 33.456 84.3319 34.0909ZM94.4025 42.6818C94.0872 42.6818 93.7953 42.6563 93.5268 42.6051C93.2626 42.5582 93.0517 42.5028 92.894 42.4389L93.4309 40.6364C93.7676 40.7344 94.068 40.7813 94.3322 40.777C94.5964 40.7727 94.8287 40.6896 95.0289 40.5277C95.2335 40.37 95.4061 40.1058 95.5467 39.7351L95.7449 39.2045L92.1845 29.1818H94.639L96.9018 36.5966H97.0041L99.2733 29.1818H101.734L97.8031 40.1889C97.6199 40.7088 97.377 41.1541 97.0744 41.5249C96.7718 41.8999 96.4011 42.1854 95.9622 42.3814C95.5275 42.5817 95.0076 42.6818 94.4025 42.6818Z" fill="black"/>
</svg>
