<?xml version="1.0" encoding="UTF-8"?>
<svg id="Layer_1" xmlns="http://www.w3.org/2000/svg" version="1.1" viewBox="0 0 60 60">
  <!-- Generator: Adobe Illustrator 29.5.1, SVG Export Plug-In . SVG Version: 2.1.0 Build 141)  -->
  <defs>
    <style>
      .st0 {
        fill-rule: evenodd;
      }
    </style>
  </defs>
  <g id="Layer2">
    <path class="st0" d="M39.34,23.42c-5.32,0-9.63,4.32-9.63,9.63s4.32,9.63,9.63,9.63,9.63-4.32,9.63-9.63-4.32-9.63-9.63-9.63h0ZM37.09,30.21v3.71c0,.39.15.76.43,1.03.27.27.65.43,1.03.42h4.09c.8-.02,1.45-.67,1.45-1.48,0-.8-.66-1.45-1.46-1.45h-2.63s0-2.24,0-2.24c0-.8-.65-1.45-1.45-1.45s-1.45.65-1.45,1.45Z"/>
    <path class="st0" d="M41.52,43.54c-.8.18-1.64.28-2.5.28-6.12,0-11.08-4.97-11.08-11.08s4.97-11.08,11.08-11.08c.86,0,1.69.1,2.5.28v-7.21c0-.96-.38-1.89-1.06-2.57s-1.61-1.06-2.57-1.06H14.66c-2.01,0-3.64,1.63-3.64,3.64v30.55c0,2.01,1.63,3.64,3.64,3.64h23.22c.96,0,1.89-.38,2.57-1.06s1.07-1.61,1.06-2.57v-1.74ZM14.84,41.64h12.23c.8,0,1.45-.65,1.45-1.45s-.65-1.45-1.45-1.45h-12.23c-.8,0-1.45.65-1.45,1.45s.65,1.45,1.45,1.45ZM14.84,31.45h9.17c.8,0,1.45-.65,1.45-1.45s-.65-1.45-1.45-1.45h-9.17c-.8,0-1.45.65-1.45,1.45s.65,1.45,1.45,1.45ZM14.84,21.27h15.79c.8,0,1.45-.65,1.45-1.45s-.65-1.45-1.45-1.45h-15.79c-.8,0-1.45.65-1.45,1.45s.65,1.45,1.45,1.45Z"/>
  </g>
</svg>