<?xml version="1.0" encoding="UTF-8"?>
<svg id="Layer_1" xmlns="http://www.w3.org/2000/svg" version="1.1" viewBox="0 0 60 60">
  <!-- Generator: Adobe Illustrator 29.5.1, SVG Export Plug-In . SVG Version: 2.1.0 Build 141)  -->
  <path d="M40.39,20.65c-.61,0-1.11-.5-1.11-1.11v-8.54h-15.96c-1.84,0-3.34,1.5-3.34,3.34v12.45c.37-.03.74-.05,1.11-.05,3.79,0,7.19,1.73,9.44,4.45h12.08c.61,0,1.11.5,1.11,1.11s-.5,1.11-1.11,1.11h-10.62c.7,1.36,1.14,2.86,1.29,4.45h9.33c.61,0,1.11.5,1.11,1.11s-.5,1.11-1.11,1.11h-9.33c-.33,3.68-2.3,6.89-5.16,8.91h17.46c1.84,0,3.34-1.5,3.34-3.34v-25.01h-8.54ZM42.62,26.73h-16.33c-.61,0-1.11-.5-1.11-1.11s.5-1.11,1.11-1.11h16.33c.61,0,1.11.5,1.11,1.11s-.5,1.11-1.11,1.11Z"/>
  <path d="M41.5,11.65v6.77h6.77l-6.77-6.77Z"/>
  <path d="M21.09,28.96c-5.52,0-10.02,4.49-10.02,10.02s4.49,10.02,10.02,10.02,10.02-4.49,10.02-10.02-4.49-10.02-10.02-10.02ZM25.22,41.53c.43.43.43,1.14,0,1.57-.22.22-.5.33-.79.33s-.57-.11-.79-.33l-2.55-2.55-2.55,2.55c-.22.22-.5.33-.79.33s-.57-.11-.79-.33c-.43-.43-.43-1.14,0-1.57l2.55-2.55-2.55-2.55c-.43-.43-.43-1.14,0-1.57.43-.43,1.14-.43,1.57,0l2.55,2.55,2.55-2.55c.43-.43,1.14-.43,1.57,0s.43,1.14,0,1.57l-2.55,2.55,2.55,2.55Z"/>
</svg>