<?xml version="1.0" encoding="UTF-8"?>
<svg id="Layer_1" xmlns="http://www.w3.org/2000/svg" version="1.1" viewBox="0 0 60 60">
  <!-- Generator: Adobe Illustrator 29.5.1, SVG Export Plug-In . SVG Version: 2.1.0 Build 141)  -->
  <path d="M30,11.09c-10.43,0-18.91,8.48-18.91,18.91s8.48,18.91,18.91,18.91,18.91-8.48,18.91-18.91-8.48-18.91-18.91-18.91ZM37.79,34.82c.82.82.82,2.15,0,2.97-.41.41-.95.62-1.49.62s-1.08-.21-1.49-.62l-4.82-4.82-4.82,4.82c-.41.41-.95.62-1.49.62s-1.08-.21-1.49-.62c-.82-.82-.82-2.15,0-2.97l4.82-4.82-4.82-4.82c-.82-.82-.82-2.15,0-2.97.82-.82,2.15-.82,2.97,0l4.82,4.82,4.82-4.82c.82-.82,2.15-.82,2.97,0s.82,2.15,0,2.97l-4.82,4.82,4.82,4.82Z"/>
</svg>