<?xml version="1.0" encoding="UTF-8"?>
<svg id="Layer_1" xmlns="http://www.w3.org/2000/svg" version="1.1" viewBox="0 0 60 60">
  <!-- Generator: Adobe Illustrator 29.5.1, SVG Export Plug-In . SVG Version: 2.1.0 Build 141)  -->
  <path d="M30,11.09c-10.45,0-18.91,8.46-18.91,18.91s8.46,18.91,18.91,18.91,18.91-8.46,18.91-18.91-8.46-18.91-18.91-18.91ZM25.5,37.98s-6.53-6.53-7-7c-1.04-1.04-1.04-2.74,0-3.79,1.05-1.05,2.74-1.05,3.79,0l4.23,4.23c.53.53,1.38.52,1.9,0l9.28-9.42c1.04-1.06,2.75-1.07,3.8-.01,1.04,1.04,1.04,2.73.01,3.77-10.08,10.23-12,12.22-12,12.22-1.11,1.11-2.91,1.11-4.02,0h0Z"/>
</svg>