<?xml version="1.0" encoding="UTF-8"?>
<svg id="Layer_1" xmlns="http://www.w3.org/2000/svg" version="1.1" viewBox="0 0 60 60">
  <!-- Generator: Adobe Illustrator 29.5.1, SVG Export Plug-In . SVG Version: 2.1.0 Build 141)  -->
  <path d="M13.37,18.9h0c.04-.24.18-.46.4-.6.41-.26.95-.14,1.21.27,1.24,1.94,2.49,1.9,3.59,1.86,1.07-.03,2.05-.06,2.87.68,0-.12-.01-.25-.02-.37-.08-.96-.35-1.86-.83-2.6-.78-1.2-2.15-2.02-4.19-2.02s-3.41.82-4.19,2.02c-.48.75-.76,1.65-.83,2.6-.05.6-.02,1.21.08,1.82.3-.23.58-.53.85-.91.48-.69.87-1.6,1.06-2.74Z"/>
  <path d="M50.31,34.64c-3.93,0-7.13,3.2-7.13,7.13s3.2,7.13,7.13,7.13,7.13-3.2,7.13-7.13-3.2-7.13-7.13-7.13ZM54.18,44.63c.35.35.35.91,0,1.25-.17.17-.4.26-.63.26s-.45-.09-.63-.26l-2.62-2.62-2.62,2.62c-.17.17-.4.26-.63.26s-.45-.09-.63-.26c-.35-.35-.35-.91,0-1.25l2.62-2.62-2.62-2.62c-.35-.35-.35-.91,0-1.25s.91-.35,1.25,0l2.62,2.62,2.62-2.62c.35-.35.91-.35,1.25,0s.35.91,0,1.25l-2.62,2.62,2.62,2.62Z"/>
  <path d="M16.4,29.72c-.31,0-.62-.04-.95-.12-.27-.07-.54-.15-.8-.25v.77c0,.52.21,1,.56,1.35.35.35.82.56,1.35.56s1-.21,1.35-.56c.34-.34.56-.82.56-1.35v-.89c-.35.15-.72.28-1.11.37-.33.08-.64.12-.95.12Z"/>
  <path d="M18.63,22.2c-1.23.04-2.6.09-3.98-1.24-.25.65-.55,1.22-.89,1.71-.52.74-1.14,1.3-1.77,1.67.48,1.13,1.24,2.14,2.24,2.81.03.02.05.03.08.05.47.31,1,.55,1.58.69.18.04.35.07.53.07s.35-.02.53-.07c.69-.17,1.31-.47,1.85-.88.02-.02.05-.04.07-.06,1-.77,1.74-1.88,2.16-3.1-.58-1.71-1.42-1.68-2.38-1.65Z"/>
  <path d="M50.31,32.88V15.05c0-2.18-1.78-3.96-3.97-3.96H6.53c-2.18,0-3.96,1.78-3.96,3.96v26.81c0,2.18,1.78,3.96,3.96,3.96h35.86c-.62-1.22-.97-2.59-.97-4.05,0-4.92,3.98-8.9,8.9-8.9ZM30.06,19.85h15.99c.49,0,.88.4.88.89s-.4.89-.88.89h-15.99c-.49,0-.89-.4-.89-.89s.4-.89.89-.89ZM30.06,25h11.26c.49,0,.89.4.89.89s-.4.88-.89.88h-11.26c-.49,0-.89-.4-.89-.88s.4-.89.89-.89ZM30.06,30.15h15.99c.49,0,.88.4.88.89s-.4.89-.88.89h-15.99c-.49,0-.89-.4-.89-.89s.4-.89.89-.89ZM26.39,41.79c-.48.48-1.15.78-1.89.78h-2.26v-4.21c0-.49-.4-.89-.89-.89s-.88.4-.88.89v4.21h-7.84v-4.21c0-.49-.4-.89-.89-.89s-.88.4-.88.89v4.21h-2.26c-.73,0-1.4-.3-1.89-.78-.48-.48-.78-1.15-.78-1.89v-5.65c0-.66.18-1.28.52-1.81.33-.53.81-.96,1.41-1.25h0s5.01-2.39,5.01-2.39v-.44c-1.33-1.02-2.29-2.5-2.82-4.1-.39-1.19-.54-2.45-.45-3.66.1-1.24.47-2.42,1.12-3.43,1.1-1.68,2.95-2.83,5.67-2.83s4.57,1.15,5.67,2.83c.65,1,1.02,2.19,1.12,3.43.1,1.21-.06,2.47-.45,3.66-.49,1.48-1.33,2.84-2.51,3.85v.69l4.95,2.37s.05.02.07.03c.6.29,1.08.72,1.41,1.25.33.53.52,1.15.52,1.81v5.65h0c0,.73-.3,1.4-.78,1.89ZM30.06,37.07c-.49,0-.89-.4-.89-.88s.4-.89.89-.89h11.26c.49,0,.89.4.89.89s-.4.88-.89.88h-11.26Z"/>
</svg>