<?xml version="1.0" encoding="UTF-8"?>
<svg id="Layer_1" xmlns="http://www.w3.org/2000/svg" version="1.1" viewBox="0 0 60 60">
  <!-- Generator: Adobe Illustrator 29.5.1, SVG Export Plug-In . SVG Version: 2.1.0 Build 141)  -->
  <path d="M50.31,32.87V15.05c0-2.18-1.78-3.96-3.97-3.96H6.53c-2.18,0-3.96,1.78-3.96,3.96v26.81c0,2.18,1.78,3.96,3.96,3.96h35.86c-.62-1.22-.97-2.59-.97-4.05,0-4.92,3.98-8.9,8.9-8.9h0ZM30.06,19.85h15.99c.49,0,.88.4.88.89s-.4.89-.88.89h-15.99c-.49,0-.89-.4-.89-.89s.4-.89.89-.89ZM30.06,25h11.26c.49,0,.89.4.89.89s-.4.88-.89.88h-11.26c-.49,0-.89-.4-.89-.88s.4-.89.89-.89ZM30.06,30.15h15.99c.49,0,.88.4.88.89s-.4.89-.88.89h-15.99c-.49,0-.89-.4-.89-.89s.4-.89.89-.89ZM27.18,39.9c0,.73-.3,1.4-.78,1.89-.48.48-1.15.78-1.89.78h-2.26v-4.21c0-.49-.4-.89-.89-.89s-.88.4-.88.89v4.21h-7.84v-4.21c0-.49-.4-.89-.89-.89s-.88.4-.88.89v4.21h-2.26c-.73,0-1.4-.3-1.89-.78-.48-.48-.78-1.15-.78-1.89v-5.65c0-.66.18-1.28.52-1.81.33-.53.81-.96,1.41-1.25h0s5.01-2.39,5.01-2.39v-.44c-1.33-1.02-2.29-2.5-2.82-4.1-.39-1.19-.54-2.45-.45-3.66.1-1.24.47-2.42,1.12-3.43,1.1-1.68,2.95-2.83,5.67-2.83s4.57,1.15,5.67,2.83c.65,1,1.02,2.19,1.12,3.43.1,1.21-.06,2.47-.45,3.66-.49,1.48-1.33,2.84-2.51,3.85v.69l4.95,2.37s.05.02.07.03c.6.29,1.08.72,1.41,1.25s.52,1.15.52,1.81v5.65h0ZM30.06,37.07c-.49,0-.89-.4-.89-.88s.4-.89.89-.89h11.26c.49,0,.89.4.89.89s-.4.88-.89.88h-11.26ZM50.31,34.64c-3.93,0-7.13,3.21-7.13,7.13s3.2,7.13,7.13,7.13,7.13-3.21,7.13-7.13-3.2-7.13-7.13-7.13ZM54.52,39.94l-4.88,4.91c-.34.35-.9.35-1.25,0l-2.28-2.27c-.35-.34-.35-.9,0-1.25.34-.34.9-.35,1.25,0l1.66,1.65,4.26-4.29c.34-.34.9-.35,1.25,0,.35.34.35.9,0,1.25h0ZM17.35,29.6c.39-.09.76-.22,1.11-.37v.89c0,.52-.22,1-.56,1.35-.35.35-.82.56-1.35.56s-1-.21-1.35-.56c-.35-.34-.56-.82-.56-1.35v-.77c.26.1.52.18.8.25.33.08.64.12.95.12.31,0,.62-.04.95-.12h0ZM12.31,21.65c-.27.38-.55.68-.85.91-.1-.61-.13-1.22-.08-1.82.08-.96.35-1.86.83-2.6.78-1.2,2.15-2.02,4.19-2.02s3.41.82,4.19,2.02c.48.75.76,1.65.83,2.6,0,.12.02.25.02.37-.82-.74-1.8-.71-2.87-.68-1.1.04-2.35.08-3.59-1.86-.26-.41-.81-.53-1.21-.27-.22.14-.36.36-.4.6h0c-.19,1.14-.58,2.06-1.06,2.74ZM21.01,23.85c-.43,1.22-1.16,2.33-2.16,3.1-.02.02-.05.03-.07.05-.54.4-1.16.71-1.85.88-.18.04-.35.07-.53.07s-.35-.02-.53-.07c-.58-.14-1.1-.38-1.58-.69-.03-.02-.05-.04-.08-.05-1-.68-1.76-1.68-2.24-2.81.64-.37,1.25-.93,1.77-1.67.34-.49.65-1.06.89-1.71,1.39,1.33,2.75,1.28,3.98,1.24.96-.03,1.8-.06,2.38,1.65h0Z"/>
</svg>